<?xml version="1.0" encoding="UTF-8"?>
<svg id="Layer_1" data-name="Layer 1" xmlns="http://www.w3.org/2000/svg" viewBox="0 0 159.32 159.32">
  <defs>
    <style>
      .cls-1 {
        fill: #fff;
      }
    </style>
  </defs>
  <circle cx="79.66" cy="79.66" r="79.66"/>
  <g>
    <path class="cls-1" d="M79.64,63.9c-.18.54-1.92.68-2.4.27s-.24-5.07-.25-6.15c-.03-2.12-.23-4.22,0-6.39-1.01-2.84,1.38-7.63-2.81-8.12s-9.47,2.11-11.81,5.78c-.71,1.12-1.34,3.53-1.79,4.07-.52.63-2.54,1.05-3.47,1.6-2.63,1.56-4.64,5.14-4.92,8.14-.09,1.01.22,2.9-.05,3.68-.07.21-1.56,1.31-1.96,1.77-2.59,3.02-3.23,8.04-1.86,11.73.17.47.85,1.09.85,1.46,0,.2-1.44,2.63-1.66,3.58-.7,3.08.1,7.84,2.4,10.15.5.5,2.22,1.46,2.41,1.85.31.63.03,1.53.16,2.24.54,3.01,2.42,6.38,5.21,7.85.85.44,2.7.64,3.15,1.11.35.36.59,1.59.98,2.22,2.31,3.7,6.43,5.62,10.75,5.25,1.78-.15,3.62-.8,4.33-2.6v-27.33s-2.17-2.03-2.17-2.03c-.67.12-5.85,6.3-7.27,7.14-1.82,1.07-3.6.14-4.98.62-.54.19-.92,1.85-2.3,2.23-5.84,1.6-6.13-7.15-.98-6.79,1.99.14,2.42,1.88,3.01,2.08.41.14,2.92.12,3.37-.01,1.2-.36,4.55-5.15,6.18-5.81l1.19-1.46c-1.31-1.04-2.68-3.41-4.38-3.61-1.52-.18-7.99-.25-9.33.01-.88.17-1.06,1.5-2.34,1.92-5.54,1.82-6.63-6.93-1.12-6.75,2.23.08,2.17,1.48,3.06,2.02,1.09.66,9.13-.29,11.27.19,1.27.29,4.66,4.61,6.05,5.67.27.21.34.51.8.4v-10.26c0-.8-7.28-7.11-8.05-8.47-.98-1.67-.06-4.34-.53-5.87-.22-.74-1.8-.89-2.06-3.01-.67-5.5,7.88-5.56,6.89.54-.24,1.5-1.88,1.88-2.07,2.46-.14.41-.13,3.97.01,4.43,2.56,3.25,6.62,5.7,8.45,9.4l.02,3.31c1.23-1.55,8.36-7.46,8.74-8.71.14-.48.18-6.57.06-7.08-.07-.29-2.01-1.04-2.13-2.75-.28-4.08,5.82-4.88,6.79-1.18.81,3.08-1.88,3.29-2.21,4.73-.3,1.28.37,3.87.22,5.55-.07.79-.22,1.64-.58,2.35-3.22,4.02-7.43,7.13-10.89,10.96v18.78c2.03-1.21,4.98-5.73,6.94-6.52,1.75-.7,4.66.54,6.52-.68.46-.3,4.42-3.98,4.54-4.27.17-.4-.25-1.23-.02-2.13.31-1.18,1.5-2.2,2.7-2.37,5.24-.72,5.13,7.1.28,6.82-.5-.03-.95-.55-1.49-.33-.6.25-2.89,3.06-3.73,3.74-2.95,2.36-4.73,1.44-8.14,1.98l-7.52,7.66c-.45,4.23.41,9.12-.05,13.27-.85,7.59-13.02,5.58-17.45,1.99-1.92-1.56-2.55-3.67-3.72-4.8-.57-.56-2.88-1.25-4-2.12-1.76-1.37-3.79-4.03-4.53-6.13-.37-1.06-.55-3.43-.92-4.07-.11-.18-1.46-1.16-1.87-1.66-3.04-3.59-3.81-8.94-2.81-13.45.16-.74.85-1.99.87-2.58s-.89-2.63-1-3.69c-.32-3.27.44-7.02,2.18-9.8.47-.74,2.2-2.46,2.29-2.77.22-.74-.04-1.75.09-2.58.64-4.12,2.99-8.47,6.65-10.67.59-.36,2.02-.7,2.31-1.02.24-.26.8-2.03,1.19-2.68,3.21-5.35,10.41-9.72,16.79-8.1,1.38.35,3.94,1.97,3.94,3.52v20.25ZM69.44,52.35c-.98.25-1.44,1.76-.44,2.48,2.42,1.73,2.85-3.09.44-2.48ZM90.76,54.77c-1.19-1.17-3.1.46-2.09,1.69,1.12,1.37,3.3-.5,2.09-1.69ZM55.04,75.8c-1.58.48-.85,3.06.89,2.52,1.84-.57.9-3.06-.89-2.52ZM100.34,83.27c-1.06.32-1.03,2.13.22,2.34,2.31.39,2.18-3.07-.22-2.34ZM57.85,91.68c1.42,1.4,3.36-.97,1.96-2.09s-2.96,1.11-1.96,2.09Z"/>
    <path class="cls-1" d="M101.02,110.73c-.3.28-.81,1.85-1.18,2.42-2.84,4.36-9.28,7.04-14.41,6.24-1.32-.21-4.6-1.51-3.41-3.28,1.05-1.57,2.26-.32,3.65-.15,4.64.57,9.99-1.62,12.14-5.92.32-.65.44-2,.86-2.34.35-.28,3.08-.76,4.07-1.26,4.33-2.2,6.88-7.37,6.48-12.17-.06-.71-.78-2.75-.75-2.9.03-.19,1.94-2.22,2.33-3,1.97-3.99,1.53-9.84-1.19-13.4-.37-.49-1.87-1.74-1.93-2.06-.03-.18.9-2.14.99-2.92.66-5.55-2.05-11.4-7.39-13.47-.16-7-7.37-13.89-14.5-12.68-1.81.31-3.62,2.8-5.02.61-.81-1.27,1.57-3.24,2.69-3.73,6.89-3.03,16.36,3.41,18.97,9.81.39.97.67,2.89,1.05,3.48.31.49,1.23.81,1.7,1.23,4.25,3.83,6.4,8.73,6,14.51-.05.73-.6,1.77-.48,2.34.09.45,1.63,2.24,2.04,3.03,2.12,4.12,2.29,10.16.31,14.35-.32.68-1.74,2.49-1.76,2.65-.08.53.39,1.74.42,2.42.27,6-3.19,12.14-8.52,14.92-.7.36-2.89,1.03-3.14,1.26Z"/>
    <path class="cls-1" d="M101.66,66.79c1.06,1.1,1.17,3.05.36,4.31-1.52,2.36-3.95.94-4.67,1.43-.49.34-1.43,1.78-1.98,2.3-1.52,1.46-8.29,7.3-8.52,8.8-.17,1.09.55,3.4-.99,3.52-2.14.17-1.58-4.64-.85-5.9l10.63-10.42c.66-1.15-.22-2.32.78-3.74,1.15-1.64,3.88-1.72,5.24-.31ZM100.08,68.1c-1.47-1.28-3.51,1.64-1.34,2.28,1.63.48,2.1-1.63,1.34-2.28Z"/>
    <path class="cls-1" d="M64.33,64.68c2.03,2.29,7.39,5.33,5.05,8.67-1.41-1.32-2.86-2.63-4.27-3.98-.79-.76-3.07-3.51-3.61-3.86-1.02-.66-2.42-.02-3.41-1.65-2.86-4.72,5.24-7.14,5.57-2.1.12,1.87-.67,1.42.66,2.92Z"/>
    <path class="cls-1" d="M68.12,96.85c2.59-.29,4.39,2.59,3.37,4.99-.42.98-1.54,1.22-1.7,2.02-.14.71-.03,1.99.24,2.68.39.98,2.34,1.79,1.22,2.78-1.38,1.22-3.18-1.41-3.53-2.6-.25-.87-.14-2.39-.38-3.08-.14-.4-1.74-1.24-2.03-2.5-.46-2.02.7-4.06,2.81-4.29ZM68.11,98.98c-1,.27-1.48,1.94-.27,2.31,2.63.8,2.23-2.84.27-2.31Z"/>
    <path class="cls-1" d="M90.06,100.3c.19-.31,3.79.06,4.61-.05,2.52-.35,4.37-2.27,4.89-4.7.24-1.11-.37-3.2,1.52-3s.77,4.46.27,5.59c-1.57,3.55-5.29,5.03-9.03,4.51-1.01-.14-3.05-1.07-2.26-2.34Z"/>
    <path class="cls-1" d="M86.52,104.57c.12.07.61,1.13.59,1.41-.04.53-1.02,1.46-1.28,2.23-.43,1.28.54,3.03-1.48,3.23-2.51-1.15.19-8,2.17-6.86Z"/>
  </g>
</svg>