<?xml version="1.0" encoding="UTF-8"?>
<svg id="Layer_1" data-name="Layer 1" xmlns="http://www.w3.org/2000/svg" viewBox="0 0 351.06 136.82">
  <path d="M61.36,41.41c-.31.93-3.3,1.17-4.12.47s-.41-8.72-.44-10.56c-.05-3.63-.4-7.25,0-10.98-1.73-4.87,2.37-13.11-4.82-13.94s-16.27,3.63-20.28,9.93c-1.22,1.92-2.31,6.06-3.08,6.99-.9,1.09-4.37,1.8-5.95,2.74-4.52,2.69-7.96,8.82-8.44,13.98-.16,1.74.38,4.98-.08,6.33-.12.36-2.69,2.26-3.36,3.04-4.45,5.19-5.55,13.81-3.2,20.14.3.81,1.46,1.87,1.46,2.52,0,.34-2.47,4.51-2.85,6.15-1.21,5.3.17,13.46,4.12,17.44.86.86,3.82,2.51,4.14,3.18.53,1.09.05,2.63.27,3.85.92,5.17,4.16,10.96,8.95,13.48,1.45.76,4.65,1.1,5.42,1.91.6.62,1.01,2.73,1.68,3.81,3.96,6.35,11.04,9.66,18.47,9.02,3.06-.26,6.23-1.38,7.44-4.46v-46.95s-3.73-3.49-3.73-3.49c-1.16.2-10.06,10.83-12.49,12.26-3.13,1.84-6.19.25-8.55,1.06-.93.32-1.59,3.19-3.95,3.83-10.03,2.75-10.53-12.28-1.68-11.67,3.41.23,4.16,3.22,5.16,3.57.7.24,5.02.21,5.78-.02,2.06-.61,7.82-8.84,10.62-9.98l2.05-2.5c-2.24-1.79-4.6-5.86-7.53-6.2-2.61-.31-13.72-.43-16.02.02-1.52.3-1.82,2.58-4.02,3.3-9.52,3.12-11.39-11.91-1.93-11.59,3.83.13,3.72,2.54,5.26,3.47,1.87,1.13,15.69-.5,19.35.33,2.17.49,8.01,7.92,10.39,9.75.46.35.58.88,1.38.68v-17.62c0-1.37-12.5-12.21-13.83-14.55-1.68-2.87-.1-7.45-.9-10.08-.39-1.26-3.1-1.53-3.54-5.16-1.15-9.45,13.54-9.55,11.83.93-.42,2.57-3.22,3.24-3.56,4.22-.24.71-.21,6.82.02,7.61,4.4,5.59,11.38,9.8,14.52,16.14l.03,5.69c2.11-2.67,14.36-12.81,15-14.97.25-.83.32-11.28.1-12.17-.12-.49-3.45-1.78-3.65-4.73-.48-7.01,9.99-8.38,11.66-2.02,1.39,5.29-3.23,5.65-3.8,8.12-.51,2.2.63,6.64.38,9.53-.12,1.35-.39,2.82-1,4.04-5.53,6.9-12.77,12.25-18.7,18.83v32.27c3.48-2.08,8.56-9.85,11.92-11.19,3-1.2,8,.93,11.2-1.16.8-.52,7.59-6.84,7.79-7.34.28-.69-.43-2.12-.03-3.66.53-2.03,2.57-3.78,4.63-4.06,9-1.23,8.81,12.2.48,11.71-.86-.05-1.63-.95-2.56-.56-1.03.43-4.96,5.26-6.41,6.43-5.06,4.05-8.13,2.47-13.99,3.4l-12.92,13.16c-.77,7.26.71,15.67-.09,22.79-1.47,13.03-22.36,9.58-29.97,3.42-3.3-2.68-4.38-6.3-6.39-8.25-.99-.96-4.95-2.15-6.88-3.65-3.02-2.35-6.51-6.92-7.78-10.53-.64-1.82-.94-5.89-1.58-7-.18-.31-2.5-2-3.22-2.85-5.23-6.17-6.54-15.35-4.82-23.1.28-1.26,1.46-3.42,1.49-4.42s-1.54-4.52-1.71-6.33c-.55-5.62.75-12.06,3.75-16.84.8-1.28,3.78-4.23,3.93-4.76.38-1.27-.07-3,.15-4.43,1.09-7.08,5.13-14.55,11.42-18.33,1.02-.61,3.46-1.2,3.97-1.75.41-.44,1.37-3.49,2.04-4.6C31.27,5.31,43.62-2.19,54.59.59c2.38.6,6.77,3.38,6.77,6.04v34.78ZM43.83,21.57c-1.68.43-2.47,3.03-.76,4.25,4.15,2.97,4.89-5.31.76-4.25ZM80.47,25.73c-2.04-2.01-5.32.8-3.59,2.91,1.92,2.35,5.67-.86,3.59-2.91ZM19.12,61.85c-2.72.83-1.47,5.26,1.52,4.32,3.15-.99,1.54-5.26-1.52-4.32ZM96.92,74.68c-1.82.55-1.77,3.66.38,4.02,3.97.67,3.74-5.28-.38-4.02ZM23.94,89.13c2.45,2.41,5.77-1.66,3.36-3.59-2.35-1.88-5.08,1.91-3.36,3.59Z"/>
  <path d="M98.08,121.85c-.51.49-1.39,3.18-2.03,4.15-4.87,7.49-15.95,12.1-24.75,10.73-2.26-.35-7.89-2.59-5.86-5.64,1.8-2.7,3.88-.54,6.26-.25,7.98.98,17.15-2.78,20.86-10.16.56-1.11.75-3.44,1.47-4.02.61-.49,5.3-1.3,6.99-2.17,7.44-3.79,11.81-12.67,11.13-20.9-.1-1.21-1.34-4.72-1.3-4.97.06-.32,3.33-3.81,4-5.16,3.39-6.86,2.63-16.9-2.05-23.02-.64-.84-3.21-2.99-3.32-3.54-.06-.31,1.55-3.68,1.71-5.02,1.14-9.54-3.51-19.58-12.69-23.14-.28-12.02-12.66-23.86-24.91-21.78-3.11.53-6.22,4.82-8.62,1.04-1.39-2.19,2.69-5.57,4.62-6.41,11.84-5.2,28.1,5.86,32.58,16.85.68,1.66,1.16,4.96,1.8,5.99.52.84,2.11,1.38,2.92,2.12,7.29,6.58,10.99,14.99,10.3,24.93-.09,1.26-1.02,3.04-.82,4.02.16.77,2.81,3.85,3.5,5.21,3.65,7.08,3.94,17.45.53,24.65-.55,1.16-2.98,4.28-3.02,4.55-.14.92.67,2.99.72,4.15.46,10.31-5.48,20.86-14.63,25.63-1.2.63-4.97,1.77-5.39,2.17Z"/>
  <path d="M162.73,18.3c7.49.89,12.06,7.26,10.55,14.67-.67,3.3-2.49,3.96-4.54,5.88-1.12,1.06,1.4,1.39,2.42,2.13,4.6,3.34,4.7,11.3,1.6,15.73-2.1,3-7.34,5.52-10.95,5.52h-21.74V18.3c7.16.62,15.66-.83,22.65,0ZM148.31,36.15h12.13c.5,0,2.78-1.28,3.23-1.8,2.19-2.52,1.05-8.27-2.32-8.27h-13.04c-.12.34.46.55.46.69v8.7c0,.1-.69.52-.46.69ZM148.77,54.46h12.59c2.37,0,4.72-3.54,4.77-5.77.04-1.99-2.39-5.67-4.31-5.67h-13.04v11.44Z"/>
  <path d="M318.11,18.3v19.22l3.44-3.2,13.27-16.02h10.3l-15.9,18.99,16.82,24.95h-9.84c-4.33-6.41-9.18-12.52-13.05-19.22-.75.68-5.03,5.34-5.03,5.72v13.5h-8.24V18.3h8.24Z"/>
  <path d="M259.53,62.24h-8.47c-1.71-1.37-2.59-8.99-4.19-9.54-2.18.11-16.65-.51-17.14.2l-3.38,9.34h-8.47l16.69-43.97c1.73.36,7.83-.58,8.72.49l16.24,43.48ZM244.42,45.3l-5.72-16.94-5.72,16.94h11.44Z"/>
  <path d="M303,31.11l-8.4,1.87c-9.57-17.41-30.03-3.34-23.53,13.82,4.13,10.9,19.69,11.75,23.99.75l7.95,1.41c-4.71,17.46-29.67,18.95-38.52,3.96-6.94-11.75-2.56-29.92,11.16-34.3,11.24-3.58,23.55.85,27.36,12.48Z"/>
  <path d="M136.87,118.07l15.33-42.57c1.48-3.1,6.34-.21,9.1-1.34l.51.42,16.25,43.48c-1.91-.83-7.62.52-8.71-.21-.79-.52-2.59-8.28-3.49-8.5-3.42.41-7.18-.34-10.45-.35-.81,0-1.75.39-2.74.41-1.16.02-3.57-.74-4.24.08l-2.86,8.58h-8.7ZM163.42,102.05l-6.4-18.31-5.96,18.31h12.36Z"/>
  <polygon points="190.42 18.3 190.42 54 211.93 54 211.93 62.24 182.18 62.24 182.18 18.3 190.42 18.3"/>
  <path d="M191.79,118.07c-2.75.29-5.11-.87-7.78,0v-43.48h7.09c.14,0,.35-.58.69-.46v43.94Z"/>
  <path d="M99.19,46.37c1.82,1.88,2,5.24.61,7.4-2.61,4.06-6.79,1.61-8.03,2.46-.85.59-2.46,3.05-3.4,3.95-2.61,2.51-14.23,12.55-14.64,15.12-.3,1.88.94,5.84-1.7,6.05-3.68.3-2.72-7.97-1.46-10.13l18.26-17.89c1.13-1.97-.37-3.98,1.35-6.43,1.98-2.82,6.66-2.95,9-.53ZM96.48,48.62c-2.53-2.19-6.02,2.81-2.3,3.92,2.81.83,3.6-2.79,2.3-3.92Z"/>
  <path d="M35.07,42.76c3.48,3.93,12.69,9.15,8.67,14.89-2.43-2.28-4.92-4.52-7.34-6.84-1.36-1.3-5.28-6.03-6.19-6.62-1.74-1.13-4.15-.03-5.85-2.84-4.91-8.11,9.01-12.26,9.57-3.61.21,3.2-1.15,2.44,1.14,5.02Z"/>
  <path d="M41.57,98.02c4.45-.5,7.55,4.46,5.79,8.57-.72,1.69-2.65,2.09-2.92,3.48-.24,1.21-.05,3.42.41,4.6.66,1.68,4.02,3.07,2.1,4.78-2.37,2.1-5.47-2.41-6.06-4.47-.44-1.5-.24-4.11-.65-5.29-.24-.69-2.99-2.13-3.49-4.29-.79-3.47,1.21-6.97,4.83-7.37ZM41.55,101.66c-1.71.47-2.54,3.33-.47,3.96,4.52,1.37,3.84-4.88.47-3.96Z"/>
  <path d="M79.26,103.94c.33-.53,6.51.1,7.92-.09,4.32-.6,7.51-3.91,8.4-8.08.41-1.91-.64-5.5,2.61-5.16s1.33,7.67.47,9.61c-2.7,6.1-9.08,8.63-15.51,7.75-1.74-.24-5.23-1.84-3.88-4.03Z"/>
  <path d="M278.75,87.87v-9.15h2.29v14.65c-.91.03-1.74.15-2.55-.43-1.97-1.41-3.81-7.53-6.15-9.18v9.61h-2.75v-14.65c.96.09,2.38-.28,3.21.22,1.21.74,3.96,7.84,5.94,8.93Z"/>
  <path d="M318.56,88.32v-9.61h2.29v14.65c-.77-.11-2.03.26-2.65-.1-.97-.55-4.05-8.27-6.04-9.06v9.15h-2.75v-14.65c5.08-.73,5.8,6.99,9.15,9.61Z"/>
  <path d="M225.2,93.36v-14.65c5.34-.32,11.42,0,11.91,6.65.14,1.84-.69,4.92-2.06,6.18-.29.26-3.03,1.82-3.21,1.82h-6.64ZM227.95,90.61c8.63,1.53,8.46-10.64,0-9.15v9.15Z"/>
  <path d="M334.45,82.06c-5.42-3.59-9.06,4.92-5.15,8.11,2.1,1.71,6.03.84,5.73-2.3h-3.2s0-2.29,0-2.29c1.45.3,6.35-.86,6.39,1.1.05,2.62-1.66,6.01-4.43,6.58-12.27,2.51-11.52-17.43.35-14.32,1.18.31,4.06,2.3,2.74,3.67-1.68,1.75-1.98-.25-2.43-.54Z"/>
  <path d="M216.51,102.51c.87.05,1.96-.23,2.75.23,1.35.8,4.12,7.29,5.95,8.46l-.45-8.69h2.75s0,13.73,0,13.73c-.77-.11-2.04.26-2.66-.1s-4.24-7.25-5.01-8.47c-.29-.46.05-.81-1.03-.59v9.15h-2.29v-13.73Z"/>
  <path d="M321.77,111.21v-8.7h2.29v13.73c-.77-.11-2.03.26-2.65-.1-.87-.5-4.21-8.3-6.04-9.06v9.15h-2.29v-13.73c4.67-.75,5.64,6.22,8.7,8.7Z"/>
  <path d="M261.29,78.78c.66.41,4.05,12.98,5.56,14.58-4.56,1.23-3.45-2.55-4.16-3.15-.23-.2-5.61-.2-5.95.24-1.33,1.7.32,3.67-3.61,2.92l4.99-14.36c.36-.46,2.83-.44,3.19-.22ZM261.36,87.86c.08-1.95-1.18-3.62-1.6-5.49l-2.06,5.49h3.66Z"/>
  <path d="M216.44,78.78c.65.42,4.42,12.77,5.09,14.58-4.01,1.15-3.07-2.61-3.7-3.16-.23-.2-5.67-.19-5.96.23-1.18,1.7.36,3.68-3.61,2.93l4.8-14.19c.5-.6,2.92-.68,3.38-.39ZM215.13,82.37c-.81-.88-.76.3-.91.68-.26.66-1.59,4.6-1.37,4.81h4.12c-.66-.77-1.56-5.19-1.84-5.49Z"/>
  <path d="M297.51,106.17c-2.69,1.55-3.09-.86-4.44-1.27-6.08-1.87-7.12,8.72-1.73,9.09,3.72.25,5.77-4.32.22-3.23.08-.44-.11-1.71,0-1.83.21-.22,5.03.15,5.95,0,1.75,10-12.96,10.05-12.38.22.41-7.09,9.29-9.45,12.38-2.96Z"/>
  <path d="M297.97,82.83c-2.81,1.38-3.08-.86-4.44-1.27-7.24-2.21-7.67,10.39-.87,9.51,2.29-.3,2.55-3.11,5.3-1.82-.45,1.8-2.07,3.78-3.91,4.09-6.28,1.05-9.7-2.7-8.86-8.86.92-6.75,10.23-8.16,12.77-1.64Z"/>
  <path d="M245.79,89.24c.72-1.32,2.84-10.12,3.25-10.48.33-.29,2.45.09,3.16-.04l-5.09,14.59c-.92.08-2.74.38-3.39-.39l-4.8-14.19c.91.07,2.32-.35,2.98.45.43.52,3.04,10.73,3.88,10.07Z"/>
  <path d="M309.87,102.51v2.29s-5.95,0-5.95,0c-1.54,5.83,4.7,2.83,5.5,3.67.06.07.06,1.76,0,1.83-.19.2-4.63-.14-5.5,0,.1,1.04-.48,3.19.75,3.6,2.57.86,5.8-2.19,5.2,2.35h-8.7v-13.73h8.7Z"/>
  <path d="M336.97,106.52c-.27-.16-.32-1.15-1.44-1.53-5.9-2.01-7.4,7.85-2.44,8.88,2.79.58,3.51-2.27,5.35-1.73s-.79,3.64-2.34,4c-10.72,2.44-11.51-13.84-2.19-13.84,1.66,0,5.37,1.6,5.72,3.19.24,1.1-1.85,1.49-2.65,1.03Z"/>
  <path d="M351.06,102.51v2.29s-5.49,0-5.49,0v3.4c.15,1.07,4.2-.75,4.83.24,2.06,3.23-4.26,1.28-4.83,1.85v3.67s5.5,0,5.5,0v2.29h-8.24v-13.73h8.24Z"/>
  <path d="M252.2,102.51v2.29s-5.49,0-5.49,0v3.4s4.82.24,4.82.24c1.65,2.95-2.91,1.59-4.82,1.85v3.67s5.5,0,5.5,0v2.29h-8.24v-13.73h8.24Z"/>
  <path d="M258.61,102.51v11.44c1.26-.83,2.18-.11,3.45,0,1.6.14,2.23-1.3,2.05,2.29h-8.24v-13.73h2.75Z"/>
  <polygon points="270.05 102.51 270.05 113.49 275.55 113.95 275.54 116.24 267.31 116.24 267.31 102.51 270.05 102.51"/>
  <polygon points="240.76 102.51 240.76 104.8 236.64 104.8 236.64 116.24 234.35 116.24 234.35 104.8 230.69 104.8 230.69 102.51 240.76 102.51"/>
  <path d="M73.18,111.27c.21.12,1.04,1.94,1.01,2.42-.07.91-1.76,2.52-2.19,3.83-.73,2.2.93,5.21-2.54,5.54-4.31-1.98.33-13.74,3.73-11.79Z"/>
  <rect x="301.63" y="78.71" width="2.75" height="14.65"/>
  <path d="M278.75,102.51h3.2c.23.17-.46.59-.46.69v13.04h-2.75v-13.73Z"/>
  <rect x="209.18" y="102.51" width="2.75" height="13.73"/>
</svg>